{"title":"Repo.Men.UNRATED.2010.DVDRip.XviD-Larceny","uid":5680375,"size":1471831944,"categoryP":"video","categoryS":"movies","magnet":"?xt=urn:btih:155fa7fe8f9cff2f809f73c52be233fec9a34040&amp;dn=Repo.Men.UNRATED.2010.DVDRip.XviD-Larceny&amp;tr=udp%3A%2F%2Ftracker.openbittorrent.com%3A80&amp;tr=udp%3A%2F%2Fopen.demonii.com%3A1337&amp;tr=udp%3A%2F%2Ftracker.coppersurfer.tk%3A6969&amp;tr=udp%3A%2F%2Fexodus.desync.com%3A6969","seeders":4,"leechers":1,"uploader":"johnnyrep","files":5,"time":1278776333,"description":"info, sample, subs\n &lt;a href=&quot;\nhttp://www.btarena.org/movies/dvdrip/repo-men-unrated-2010-dvdrip-xvid-larceny&quot; rel=&quot;nofollow&quot; target=&quot;_NEW&quot;&gt;\nhttp://www.btarena.org/movies/dvdrip/repo-men-unrated-2010-dvdrip-xvid-larceny&lt;/a&gt;\n\n\n\nSample/l-repo.men.xvid-sample.avi\nFormat : AVI\nFormat/Info : Audio Video Interleave\nFile size : 14.0 MiB\nDuration : 57s 558ms\nOverall bit rate : 2 042 Kbps\nWriting application : VirtualDubMod 1.5.10.2 (build 2540/release)\nWriting library : VirtualDubMod build 2540/release\n\nVideo\nID : 0\nFormat : MPEG-4 Visual\nFormat profile : Advanced Simple@L5\nFormat settings, BVOP : Yes\nFormat settings, QPel : No\nFormat settings, GMC : No warppoints\nFormat settings, Matrix : Default (H.263)\nCodec ID : XVID\nCodec ID/Hint : XviD\nDuration : 57s 558ms\nBit rate : 1 583 Kbps\nWidth : 640 pixels\nHeight : 272 pixels\nDisplay aspect ratio : 2.35:1\nFrame rate : 23.976 fps\nResolution : 8 bits\nColorimetry : 4:2:0\nScan type : Progressive\nBits/(Pixel*Frame) : 0.379\nStream size : 10.9 MiB (78%)\nWriting library : XviD 1.2.1 (UTC 2008-12-04)\n\nAudio\nID : 1\nFormat : AC-3\nFormat/Info : Audio Coding 3\nCodec ID : 2000\nDuration : 57s 558ms\nBit rate mode : Constant\nBit rate : 448 Kbps\nChannel(s) : 6 channels\nChannel positions : Front: L C R, Surround: L R, LFE\nSampling rate : 48.0 KHz\nVideo delay : 31ms\nStream size : 3.07 MiB (22%)\nAlignment : Split accross interleaves\nInterleave, duration : 42 ms (1.01 video frame)\nInterleave, preload duration : 500 ms\n\n\n\nPlot:\nSet in the near future when artificial organs can be bought on credit, it revolves around a man who struggles to make the payments on a heart he has purchased. He must therefore go on the run before said ticker is repossessed.","torrent":{"xt":"urn:btih:155fa7fe8f9cff2f809f73c52be233fec9a34040","amp;dn":"Repo.Men.UNRATED.2010.DVDRip.XviD-Larceny","amp;tr":["udp%3A%2F%2Ftracker.openbittorrent.com%3A80","udp%3A%2F%2Fopen.demonii.com%3A1337","udp%3A%2F%2Ftracker.coppersurfer.tk%3A6969","udp%3A%2F%2Fexodus.desync.com%3A6969"],"infoHash":"155fa7fe8f9cff2f809f73c52be233fec9a34040","infoHashBuffer":{"type":"Buffer","data":[21,95,167,254,143,156,255,47,128,159,115,197,43,226,51,254,201,163,64,64]},"announce":[],"urlList":[]}}